<svg width="445" height="49" viewBox="0 0 445 49" fill="none" xmlns="http://www.w3.org/2000/svg">
<path d="M0 17.1093C0 7.6779 7.67774 0.0492163 17.109 0.109673L234 1.5V27.5L0 29V17.1093Z" fill="black"/>
<path d="M438 1.5H234V27.5924H250.541V45.1434C336.351 58.7588 412.771 20.8238 438 1.5Z" fill="#E9E6E6"/>
<path d="M433 1.5H234V27.5H250.5V40C336.1 52.8 407.833 19.6667 433 1.5Z" fill="#C4C4C4"/>
<circle cx="14" cy="14" r="4" fill="#C4C4C4"/>
<path d="M404.5 1.5H438C423.6 15.1 389.667 28.1667 374.5 33L374.498 32.9921C373.625 33.4066 368.946 35.5542 374 30.5C375.396 29.1906 380 26.5 382 24.5C382.811 23.6894 382.989 22.4458 383.058 21.1053C383.233 17.7156 385.899 15.7138 388.937 14.2021C391.193 13.0799 393.333 11.5011 394 9.5C395.2 5.9 401.5 2.66667 404.5 1.5Z" fill="#831616"/>
<path d="M411.5 24.5C407.9 21.7 405.333 21.3333 404.5 21.5L412.5 17.5C412.667 17.8333 413.6 19.4 416 23C417.518 25.2773 420.45 27.808 423.075 29.7821C425.377 31.5138 427.064 34.6114 425.422 36.9782C423.697 39.4643 421.33 38.0982 419.5 37C417.314 35.6883 416 28 411.5 24.5Z" fill="#831616"/>
<path d="M426.4 18.3881C422.08 14.6328 419 14.1411 418 14.3646L427.6 9C427.8 9.44705 428.92 11.5482 431.8 16.3763C433.854 19.8206 438.067 23.697 441.474 26.4478C443.577 28.1451 444.871 30.8775 443.925 33.4085C441.842 38.9765 438.503 36.831 436 35.1525C433.377 33.3933 431.8 23.0821 426.4 18.3881Z" fill="#831616"/>
</svg>
