<svg width="216" height="267" viewBox="0 0 216 267" fill="none" xmlns="http://www.w3.org/2000/svg">
<path d="M33.3574 155.5H183.357V162C183.357 189.89 160.748 212.5 132.857 212.5H83.8574C55.9671 212.5 33.3574 189.89 33.3574 162V155.5Z" fill="black" stroke="black"/>
<circle cx="109.857" cy="97" r="96.5" fill="url(#paint0_linear)" stroke="black"/>
<path d="M81.7701 197.536H71.7188L75.8422 206.703C82.3122 221.085 75.0984 235.821 70.4486 241.401L61.5653 252.062H75.4423C88.7313 252.062 96.8133 242.237 101.328 232.794C105.926 223.177 107.929 211.925 108.426 204.468L108.888 197.536H101.94H81.7701Z" fill="#FFF61C" stroke="black" stroke-width="13"/>
<path d="M136.027 197.536H146.079L141.955 206.703C135.485 221.085 142.699 235.821 147.349 241.401L156.232 252.062H142.355C129.066 252.062 120.984 242.237 116.469 232.794C111.871 223.177 109.869 211.925 109.372 204.468L108.91 197.536H115.857H136.027Z" fill="#FFF61C" stroke="black" stroke-width="13"/>
<path d="M48.1534 178.553H40.9071L41.6917 185.756C43.1268 198.934 43.2734 208.715 42.598 215.832C41.9124 223.056 40.4297 226.968 39.1084 228.918C38.0167 230.529 37.1732 230.681 36.4857 230.692C35.3388 230.711 33.4808 230.186 31.0454 228.631C25.5009 225.092 16.8514 224.168 10.9028 230.117C4.82046 236.199 5.05327 247.005 13.1238 252.035C24.6595 259.224 35.1654 261.681 44.4215 259.032C53.6539 256.391 59.867 249.177 63.9746 241.02C72.0815 224.921 73.8727 201.531 73.2367 184.806L72.999 178.553H66.7414H48.1534Z" fill="#FFF61C" stroke="black" stroke-width="13"/>
<path d="M167.704 178.553H174.95L174.166 185.756C172.731 198.934 172.584 208.715 173.259 215.832C173.945 223.056 175.428 226.968 176.749 228.918C177.841 230.529 178.684 230.681 179.372 230.692C180.519 230.711 182.377 230.186 184.812 228.631C190.357 225.092 199.006 224.168 204.955 230.117C211.037 236.199 210.804 247.005 202.734 252.035C191.198 259.224 180.692 261.681 171.436 259.032C162.204 256.391 155.99 249.177 151.883 241.02C143.776 224.921 141.985 201.531 142.621 184.806L142.858 178.553H149.116H167.704Z" fill="#FFF61C" stroke="black" stroke-width="13"/>
<path d="M105.857 103V98.9107L102.051 97.4155C82.6441 89.7912 61.0708 89.7912 41.6635 97.4155L37.8574 98.9107V103C37.8574 121.778 53.0798 137 71.8574 137C90.6351 137 105.857 121.778 105.857 103Z" fill="#FFF61C" stroke="black" stroke-width="12"/>
<path d="M181.857 103V99.1078L178.303 97.5212C158.928 88.8713 136.787 88.8713 117.412 97.5212L113.857 99.1078V103C113.857 121.778 129.08 137 147.857 137C166.635 137 181.857 121.778 181.857 103Z" fill="#FFF61C" stroke="black" stroke-width="12"/>
<defs>
<linearGradient id="paint0_linear" x1="109.857" y1="0" x2="109.857" y2="194" gradientUnits="userSpaceOnUse">
<stop stop-color="#FF0101"/>
<stop offset="1"/>
</linearGradient>
</defs>
</svg>
