<svg width="216" height="267" viewBox="0 0 216 267" fill="none" xmlns="http://www.w3.org/2000/svg">
<path d="M33.5002 155.5H183.5V162C183.5 189.89 160.891 212.5 133 212.5H84.0002C56.1098 212.5 33.5002 189.89 33.5002 162V155.5Z" fill="black" stroke="black"/>
<circle cx="110" cy="97" r="96.5" fill="black" stroke="black"/>
<path d="M81.9128 197.536H71.8615L75.9849 206.703C82.4549 221.085 75.2411 235.821 70.5913 241.401L61.708 252.062H75.585C88.874 252.062 96.956 242.237 101.471 232.794C106.069 223.177 108.071 211.925 108.568 204.468L109.031 197.536H102.083H81.9128Z" fill="#FFF61C" stroke="black" stroke-width="13"/>
<path d="M136.17 197.536H146.221L142.098 206.703C135.628 221.085 142.842 235.821 147.491 241.401L156.375 252.062H142.498C129.209 252.062 121.127 242.237 116.612 232.794C112.014 223.177 110.012 211.925 109.514 204.468L109.052 197.536H116H136.17Z" fill="#FFF61C" stroke="black" stroke-width="13"/>
<path d="M48.2961 178.553H41.0498L41.8344 185.756C43.2695 198.934 43.4161 208.715 42.7407 215.832C42.0551 223.056 40.5724 226.968 39.2511 228.918C38.1594 230.529 37.3159 230.681 36.6284 230.692C35.4815 230.711 33.6235 230.186 31.1881 228.631C25.6436 225.092 16.9941 224.168 11.0455 230.117C4.96316 236.199 5.19597 247.005 13.2665 252.035C24.8022 259.224 35.3081 261.681 44.5642 259.032C53.7966 256.391 60.0097 249.177 64.1173 241.02C72.2242 224.921 74.0154 201.531 73.3794 184.806L73.1417 178.553H66.8841H48.2961Z" fill="#FFF61C" stroke="black" stroke-width="13"/>
<path d="M167.847 178.553H175.093L174.308 185.756C172.873 198.934 172.727 208.715 173.402 215.832C174.088 223.056 175.57 226.968 176.892 228.918C177.983 230.529 178.827 230.681 179.514 230.692C180.661 230.711 182.519 230.186 184.955 228.631C190.499 225.092 199.149 224.168 205.097 230.117C211.18 236.199 210.947 247.005 202.876 252.035C191.341 259.224 180.835 261.681 171.579 259.032C162.346 256.391 156.133 249.177 152.026 241.02C143.919 224.921 142.127 201.531 142.763 184.806L143.001 178.553H149.259H167.847Z" fill="#FFF61C" stroke="black" stroke-width="13"/>
<path d="M106 103V97H100H44.0002H38.0002V103C38.0002 121.778 53.2225 137 72.0002 137C90.7778 137 106 121.778 106 103Z" fill="#FFF61C" stroke="black" stroke-width="12"/>
<path d="M182 103V97H176H120H114V103C114 121.778 129.222 137 148 137C166.778 137 182 121.778 182 103Z" fill="#FFF61C" stroke="black" stroke-width="12"/>
</svg>
